<svg width="38" height="38" viewBox="0 0 38 38" fill="none" xmlns="http://www.w3.org/2000/svg">
<rect width="38" height="38" rx="8" fill="#F5F5F5"/>
<mask id="mask0_413_3810" style="mask-type:alpha" maskUnits="userSpaceOnUse" x="6" y="13" width="25" height="5">
<path d="M12.4863 14.6934C12.556 14.6236 12.6113 14.5409 12.649 14.4498C12.6868 14.3587 12.7062 14.2611 12.7062 14.1625C12.7062 14.0639 12.6868 13.9663 12.649 13.8752C12.6113 13.7841 12.556 13.7014 12.4863 13.6317C12.4166 13.5619 12.3338 13.5066 12.2427 13.4689C12.1517 13.4312 12.054 13.4118 11.9554 13.4118C11.8568 13.4118 11.7592 13.4312 11.6681 13.4689C11.5771 13.5066 11.4943 13.5619 11.4246 13.6317L8.95626 16.1015L7.98753 15.1312C7.84674 14.9904 7.65578 14.9114 7.45667 14.9114C7.25756 14.9114 7.06661 14.9904 6.92582 15.1312C6.78503 15.272 6.70593 15.463 6.70593 15.6621C6.70593 15.7607 6.72535 15.8583 6.76308 15.9494C6.80081 16.0405 6.85611 16.1232 6.92582 16.1929L8.42541 17.6925C8.49506 17.7624 8.5778 17.8178 8.66889 17.8556C8.75998 17.8934 8.85764 17.9128 8.95626 17.9128C9.05489 17.9128 9.15254 17.8934 9.24363 17.8556C9.33473 17.8178 9.41747 17.7624 9.48712 17.6925L12.4863 14.6934ZM16.8291 14.9123C16.5308 14.9123 16.2447 15.0308 16.0338 15.2417C15.8229 15.4526 15.7044 15.7387 15.7044 16.037C15.7044 16.3353 15.8229 16.6213 16.0338 16.8323C16.2447 17.0432 16.5308 17.1617 16.8291 17.1617H29.5756C29.8739 17.1617 30.16 17.0432 30.3709 16.8323C30.5818 16.6213 30.7003 16.3353 30.7003 16.037C30.7003 15.7387 30.5818 15.4526 30.3709 15.2417C30.16 15.0308 29.8739 14.9123 29.5756 14.9123H16.8291Z" fill="#545357"/>
</mask>
<g mask="url(#mask0_413_3810)">
<rect x="15.3497" y="13.4118" width="15.6471" height="4.47059" fill="#848484"/>
</g>
<mask id="mask1_413_3810" style="mask-type:alpha" maskUnits="userSpaceOnUse" x="7" y="13" width="25" height="5">
<path d="M13.3065 14.6934C13.3762 14.6236 13.4315 14.5409 13.4692 14.4498C13.507 14.3587 13.5264 14.2611 13.5264 14.1625C13.5264 14.0639 13.507 13.9663 13.4692 13.8752C13.4315 13.7841 13.3762 13.7014 13.3065 13.6317C13.2368 13.5619 13.154 13.5066 13.0629 13.4689C12.9718 13.4312 12.8742 13.4118 12.7756 13.4118C12.677 13.4118 12.5794 13.4312 12.4883 13.4689C12.3972 13.5066 12.3145 13.5619 12.2448 13.6317L9.77645 16.1015L8.80772 15.1312C8.66693 14.9904 8.47597 14.9114 8.27686 14.9114C8.07776 14.9114 7.8868 14.9904 7.74601 15.1312C7.60522 15.272 7.52612 15.463 7.52612 15.6621C7.52612 15.7607 7.54554 15.8583 7.58327 15.9494C7.621 16.0405 7.6763 16.1232 7.74601 16.1929L9.2456 17.6925C9.31525 17.7624 9.39799 17.8178 9.48908 17.8556C9.58017 17.8934 9.67783 17.9128 9.77645 17.9128C9.87508 17.9128 9.97273 17.8934 10.0638 17.8556C10.1549 17.8178 10.2377 17.7624 10.3073 17.6925L13.3065 14.6934ZM17.6493 14.9123C17.351 14.9123 17.0649 15.0308 16.854 15.2417C16.6431 15.4526 16.5246 15.7387 16.5246 16.037C16.5246 16.3353 16.6431 16.6213 16.854 16.8323C17.0649 17.0432 17.351 17.1617 17.6493 17.1617H30.3958C30.6941 17.1617 30.9801 17.0432 31.1911 16.8323C31.402 16.6213 31.5205 16.3353 31.5205 16.037C31.5205 15.7387 31.402 15.4526 31.1911 15.2417C30.9801 15.0308 30.6941 14.9123 30.3958 14.9123H17.6493Z" fill="#545357"/>
</mask>
<g mask="url(#mask1_413_3810)">
<rect x="7.22876" y="13.4118" width="6.70588" height="4.47059" fill="#848484"/>
</g>
<mask id="mask2_413_3810" style="mask-type:alpha" maskUnits="userSpaceOnUse" x="6" y="21" width="25" height="5">
<path d="M12.4863 22.5169C12.556 22.4472 12.6113 22.3644 12.649 22.2733C12.6868 22.1823 12.7062 22.0846 12.7062 21.986C12.7062 21.8875 12.6868 21.7898 12.649 21.6987C12.6113 21.6077 12.556 21.5249 12.4863 21.4552C12.4166 21.3855 12.3338 21.3302 12.2427 21.2924C12.1517 21.2547 12.054 21.2353 11.9554 21.2353C11.8568 21.2353 11.7592 21.2547 11.6681 21.2924C11.5771 21.3302 11.4943 21.3855 11.4246 21.4552L8.95626 23.925L7.98753 22.9548C7.84674 22.814 7.65578 22.7349 7.45667 22.7349C7.25756 22.7349 7.06661 22.814 6.92582 22.9548C6.78503 23.0956 6.70593 23.2865 6.70593 23.4856C6.70593 23.5842 6.72535 23.6818 6.76308 23.7729C6.80081 23.864 6.85611 23.9468 6.92582 24.0165L8.42541 25.5161C8.49506 25.5859 8.5778 25.6413 8.66889 25.6791C8.75998 25.7169 8.85764 25.7364 8.95626 25.7364C9.05489 25.7364 9.15254 25.7169 9.24363 25.6791C9.33473 25.6413 9.41747 25.5859 9.48712 25.5161L12.4863 22.5169ZM16.8291 22.7358C16.5308 22.7358 16.2447 22.8543 16.0338 23.0652C15.8229 23.2762 15.7044 23.5622 15.7044 23.8605C15.7044 24.1588 15.8229 24.4449 16.0338 24.6558C16.2447 24.8667 16.5308 24.9852 16.8291 24.9852H29.5756C29.8739 24.9852 30.16 24.8667 30.3709 24.6558C30.5818 24.4449 30.7003 24.1588 30.7003 23.8605C30.7003 23.5622 30.5818 23.2762 30.3709 23.0652C30.16 22.8543 29.8739 22.7358 29.5756 22.7358H16.8291Z" fill="#545357"/>
</mask>
<g mask="url(#mask2_413_3810)">
<rect x="15.3497" y="21.2353" width="15.6471" height="4.47059" fill="#848484"/>
</g>
<mask id="mask3_413_3810" style="mask-type:alpha" maskUnits="userSpaceOnUse" x="7" y="21" width="25" height="5">
<path d="M13.3065 22.5169C13.3762 22.4472 13.4315 22.3644 13.4692 22.2733C13.507 22.1823 13.5264 22.0846 13.5264 21.986C13.5264 21.8875 13.507 21.7898 13.4692 21.6987C13.4315 21.6077 13.3762 21.5249 13.3065 21.4552C13.2368 21.3855 13.154 21.3302 13.0629 21.2924C12.9718 21.2547 12.8742 21.2353 12.7756 21.2353C12.677 21.2353 12.5794 21.2547 12.4883 21.2924C12.3972 21.3302 12.3145 21.3855 12.2448 21.4552L9.77645 23.925L8.80772 22.9548C8.66693 22.814 8.47597 22.7349 8.27686 22.7349C8.07776 22.7349 7.8868 22.814 7.74601 22.9548C7.60522 23.0956 7.52612 23.2865 7.52612 23.4856C7.52612 23.5842 7.54554 23.6818 7.58327 23.7729C7.621 23.864 7.6763 23.9468 7.74601 24.0165L9.2456 25.5161C9.31525 25.5859 9.39799 25.6413 9.48908 25.6791C9.58017 25.7169 9.67783 25.7364 9.77645 25.7364C9.87508 25.7364 9.97273 25.7169 10.0638 25.6791C10.1549 25.6413 10.2377 25.5859 10.3073 25.5161L13.3065 22.5169ZM17.6493 22.7358C17.351 22.7358 17.0649 22.8543 16.854 23.0652C16.6431 23.2762 16.5246 23.5622 16.5246 23.8605C16.5246 24.1588 16.6431 24.4449 16.854 24.6558C17.0649 24.8667 17.351 24.9852 17.6493 24.9852H30.3958C30.6941 24.9852 30.9801 24.8667 31.1911 24.6558C31.402 24.4449 31.5205 24.1588 31.5205 23.8605C31.5205 23.5622 31.402 23.2762 31.1911 23.0652C30.9801 22.8543 30.6941 22.7358 30.3958 22.7358H17.6493Z" fill="#545357"/>
</mask>
<g mask="url(#mask3_413_3810)">
<rect x="7.22876" y="21.2353" width="6.70588" height="4.47059" fill="#848484"/>
</g>
</svg>
