<svg width="84" height="84" viewBox="0 0 84 84" fill="none" xmlns="http://www.w3.org/2000/svg">
    <rect x=".527" width="83.148" height="83.148" rx="19.401" fill="#F6F6F6"/>
    <g opacity=".79" filter="url(#27qsnxm71a)">
        <path d="M34.338 26.408c-2.145.456-2.653-2.077-4.55-1.674l-5.772 1.227c-2.493.53-4.067 1.454-4.067 4.092l-.021 24.028c0 2.92 1.16 3.856 4.146 3.22l33.174-7.05c2.28-.485 4.147-2.728 4.147-4.984V24.758c0-2.255-1.866-3.705-4.147-3.22L39.926 25.22l-5.588 1.188z" fill="#0168FF"/>
    </g>
    <g filter="url(#h3mi24uk5b)">
        <path opacity=".72" d="M37.149 29.113c-2.151.441-2.66-2.006-4.563-1.616L26.8 28.682c-2.5.512-4.078 1.405-4.078 3.953l-.02 23.212c0 2.82 1.162 3.724 4.157 3.11l33.259-6.81c2.286-.47 4.157-2.635 4.157-4.815V27.52c0-2.18-1.87-3.579-4.157-3.11L42.75 27.965l-5.602 1.147z" fill="#CDE7FC"/>
    </g>
    <g filter="url(#tp1qscw3nc)">
        <path d="m40.141 48.436 9.769-9.796c.313-.314.337-.799.053-1.082l-3.61-3.6c-.283-.282-.767-.257-1.081.058l-9.624 9.65c-.947.95-.96 1.631-1.019 1.828l-1.02 3.996c-.14.545.314.998.859.858l4-1.027c.197-.058.885-.095 1.673-.885z" fill="#0168FF"/>
        <path d="M51.638 36.91c.435-.437.696-1.011.725-1.598a2.001 2.001 0 0 0-.57-1.53l-1.666-1.66a2.001 2.001 0 0 0-1.531-.566c-.586.03-1.16.293-1.595.73l-1.84 1.844 4.637 4.625 1.84-1.845z" fill="#fff"/>
    </g>
    <defs>
        <filter id="27qsnxm71a" x="-2.245" y="-.729" width="85.813" height="80.393" filterUnits="userSpaceOnUse" color-interpolation-filters="sRGB">
            <feFlood flood-opacity="0" result="BackgroundImageFix"/>
            <feGaussianBlur in="BackgroundImage" stdDeviation="11.086"/>
            <feComposite in2="SourceAlpha" operator="in" result="effect1_backgroundBlur_756_6873"/>
            <feBlend in="SourceGraphic" in2="effect1_backgroundBlur_756_6873" result="shape"/>
        </filter>
        <filter id="h3mi24uk5b" x="21.315" y="19.621" width="45.732" height="42.96" filterUnits="userSpaceOnUse" color-interpolation-filters="sRGB">
            <feFlood flood-opacity="0" result="BackgroundImageFix"/>
            <feGaussianBlur in="BackgroundImage" stdDeviation=".693"/>
            <feComposite in2="SourceAlpha" operator="in" result="effect1_backgroundBlur_756_6873"/>
            <feColorMatrix in="SourceAlpha" values="0 0 0 0 0 0 0 0 0 0 0 0 0 0 0 0 0 0 127 0" result="hardAlpha"/>
            <feOffset dx="2.772" dy="2.772"/>
            <feComposite in2="hardAlpha" operator="out"/>
            <feColorMatrix values="0 0 0 0 0.00392157 0 0 0 0 0.407843 0 0 0 0 1 0 0 0 0.73 0"/>
            <feBlend in2="effect1_backgroundBlur_756_6873" result="effect2_dropShadow_756_6873"/>
            <feBlend in="SourceGraphic" in2="effect2_dropShadow_756_6873" result="shape"/>
        </filter>
        <filter id="tp1qscw3nc" x="31.166" y="30.102" width="22.651" height="22.691" filterUnits="userSpaceOnUse" color-interpolation-filters="sRGB">
            <feFlood flood-opacity="0" result="BackgroundImageFix"/>
            <feColorMatrix in="SourceAlpha" values="0 0 0 0 0 0 0 0 0 0 0 0 0 0 0 0 0 0 127 0" result="hardAlpha"/>
            <feOffset dx="-.484" dy=".484"/>
            <feGaussianBlur stdDeviation=".967"/>
            <feComposite in2="hardAlpha" operator="out"/>
            <feColorMatrix values="0 0 0 0 0.00392157 0 0 0 0 0.407843 0 0 0 0 1 0 0 0 0.24 0"/>
            <feBlend in2="BackgroundImageFix" result="effect1_dropShadow_756_6873"/>
            <feBlend in="SourceGraphic" in2="effect1_dropShadow_756_6873" result="shape"/>
        </filter>
    </defs>
</svg>
