<svg width="20" height="16" viewBox="0 0 20 16" fill="none" xmlns="http://www.w3.org/2000/svg">
<path d="M10.8219 15.3561C10.7302 15.4894 10.6074 15.5983 10.4643 15.6736C10.3211 15.7488 10.1617 15.7881 9.99994 15.7881C9.83817 15.7881 9.67883 15.7488 9.53563 15.6736C9.39244 15.5983 9.26968 15.4894 9.17794 15.3561L0.17794 2.35611C0.0737648 2.20617 0.0126762 2.03054 0.00130653 1.84832C-0.0100632 1.66609 0.0287247 1.48423 0.113455 1.3225C0.198185 1.16077 0.325617 1.02536 0.481905 0.930968C0.638193 0.836577 0.81736 0.786823 0.999941 0.787111H18.9999C19.1821 0.787863 19.3606 0.838257 19.5163 0.932874C19.6719 1.02749 19.7988 1.16275 19.8834 1.3241C19.9679 1.48546 20.0069 1.66681 19.996 1.84864C19.9852 2.03048 19.925 2.20592 19.8219 2.35611L10.8219 15.3561Z" fill="#545357"/>
</svg>
