<svg width="38" height="39" viewBox="0 0 38 39" fill="none" xmlns="http://www.w3.org/2000/svg">
<path d="M33.9697 32.5688V16.411C33.9697 16.1159 33.902 15.8249 33.7721 15.5609C33.6422 15.297 33.4536 15.0673 33.2212 14.8903L20.1227 4.91049C19.7988 4.66371 19.4048 4.5303 19 4.5303C18.5951 4.5303 18.2011 4.66371 17.8772 4.91049L4.77876 14.8903C4.54636 15.0673 4.35774 15.297 4.22782 15.5609C4.09791 15.8249 4.03027 16.1159 4.03027 16.411V32.5688C4.03027 33.0729 4.22742 33.5564 4.57834 33.9129C4.92926 34.2694 5.40521 34.4697 5.90149 34.4697H32.0985C32.5947 34.4697 33.0707 34.2694 33.4216 33.9129C33.7725 33.5564 33.9697 33.0729 33.9697 32.5688Z" fill="#F5F5F5"/>
<path fill-rule="evenodd" clip-rule="evenodd" d="M15.4347 1.70465C16.4562 0.926374 17.7072 0.5 19 0.5C20.2928 0.5 21.5438 0.926374 22.5653 1.70465L35.6637 11.6845C36.396 12.2424 36.9848 12.9615 37.3882 13.7811C37.7915 14.6006 38 15.5007 38 16.411V32.5688C38 34.1215 37.3934 35.6232 36.2938 36.7403C35.1921 37.8595 33.6843 38.5 32.0985 38.5H5.90152C4.31569 38.5 2.80786 37.8594 1.70616 36.7403C0.606595 35.6232 0 34.1215 0 32.5688V16.411C0 15.5008 0.208483 14.6006 0.61181 13.7811C1.01525 12.9614 1.60401 12.2424 2.33625 11.6845L15.4347 1.70465ZM19 9.12189L8.06061 17.4567V30.4394H29.9394V17.4567L19 9.12189Z" fill="#F5F5F5"/>
<path fill-rule="evenodd" clip-rule="evenodd" d="M10.3636 29.8636C10.3636 28.9097 11.137 28.1364 12.0909 28.1364L25.9091 28.1364C26.8631 28.1364 27.6364 28.9097 27.6364 29.8636C27.6364 30.8176 26.8631 31.5909 25.9091 31.5909L12.0909 31.5909C11.137 31.5909 10.3636 30.8176 10.3636 29.8636Z" fill="#848484"/>
</svg>
