<svg width="38" height="38" viewBox="0 0 38 38" fill="none" xmlns="http://www.w3.org/2000/svg">
<rect width="38" height="38" rx="8" fill="#CDE7FC"/>
<path d="M15.3196 27.1509L24.9988 17.4717C25.3893 17.0812 25.3893 16.4481 24.9988 16.0575L21.4797 12.5385C21.0892 12.1479 20.456 12.1479 20.0655 12.5385L10.3863 22.2176C10.2433 22.3608 10.1417 22.54 10.0923 22.7362L9.2282 27.135C9.0912 27.8323 9.70491 28.446 10.4022 28.309L14.7999 27.4449C14.9966 27.3957 15.1765 27.294 15.3196 27.1509Z" fill="#0168FF"/>
<path d="M26.8236 15.6466C27.2426 15.2274 27.478 14.6589 27.478 14.0662C27.478 13.4735 27.2426 12.9051 26.8236 12.4859L25.051 10.7133C24.6318 10.2942 24.0633 10.0588 23.4706 10.0588C22.8779 10.0588 22.3094 10.2942 21.8903 10.7133L20.1177 12.4859L25.051 17.4192L26.8236 15.6466Z" fill="white"/>
</svg>
