<svg width="24" height="25" viewBox="0 0 24 25" fill="none" xmlns="http://www.w3.org/2000/svg">
<path d="M2.96859 7.73985L11.1516 3.69688C11.4156 3.56735 11.7059 3.5 12 3.5C12.2941 3.5 12.5844 3.56735 12.8484 3.69688L21.0314 7.73985C21.472 7.95363 21.8435 8.28723 22.1033 8.70243C22.363 9.11762 22.5005 9.5976 22.5 10.0873V18.7409C22.5 20.1884 21.3084 21.3659 19.8436 21.3659H4.1564C2.69156 21.3659 1.5 20.1884 1.5 18.7409V10.0873C1.4995 9.5976 1.637 9.11762 1.89675 8.70243C2.15649 8.28723 2.52796 7.95363 2.96859 7.73985ZM12.1697 5.03844C12.1169 5.01254 12.0588 4.99907 12 4.99907C11.9412 4.99907 11.8831 5.01254 11.8303 5.03844L3.89062 8.96L11.9531 12.9444C12.0059 12.9703 12.064 12.9838 12.1228 12.9838C12.1816 12.9838 12.2397 12.9703 12.2925 12.9444L20.2336 9.02235L12.1697 5.03844Z" fill="#545357"/>
</svg>
