<svg width="38" height="38" viewBox="0 0 38 38" fill="none" xmlns="http://www.w3.org/2000/svg">
<rect width="38" height="38" rx="8" fill="#F5F5F5"/>
<path d="M11.549 27.9412C11.549 27.9412 10.0588 27.9412 10.0588 26.451C10.0588 24.9608 11.549 20.4902 19 20.4902C26.451 20.4902 27.9412 24.9608 27.9412 26.451C27.9412 27.9412 26.451 27.9412 26.451 27.9412H11.549ZM19 19C20.1857 19 21.3228 18.529 22.1612 17.6906C22.9996 16.8522 23.4706 15.7151 23.4706 14.5294C23.4706 13.3437 22.9996 12.2066 22.1612 11.3682C21.3228 10.5298 20.1857 10.0588 19 10.0588C17.8143 10.0588 16.6772 10.5298 15.8388 11.3682C15.0004 12.2066 14.5294 13.3437 14.5294 14.5294C14.5294 15.7151 15.0004 16.8522 15.8388 17.6906C16.6772 18.529 17.8143 19 19 19Z" fill="#848484"/>
</svg>
