<svg width="38" height="38" viewBox="0 0 38 38" fill="none" xmlns="http://www.w3.org/2000/svg">
<rect width="38" height="38" rx="8" fill="#CDE7FC"/>
<rect x="15.5" y="15" width="16" height="2" rx="1" fill="#0168FF"/>
<path d="M7.20503 16.0717C7.47839 15.7983 7.92161 15.7983 8.19498 16.0717L9.53848 17.4152C9.81185 17.6886 9.81184 18.1318 9.53848 18.4051C9.26511 18.6785 8.8219 18.6785 8.54853 18.4051L7.20503 17.0616C6.93166 16.7883 6.93166 16.3451 7.20503 16.0717Z" fill="#0168FF"/>
<path d="M8.59048 18.4477C8.31712 18.1743 8.31712 17.7311 8.59048 17.4577L11.8432 14.205C12.1165 13.9317 12.5598 13.9317 12.8331 14.205C13.1065 14.4784 13.1065 14.9216 12.8331 15.195L9.58043 18.4477C9.30706 18.721 8.86385 18.721 8.59048 18.4477Z" fill="#0168FF"/>
<rect x="15.5" y="23" width="16" height="2" rx="1" fill="#0168FF"/>
<path d="M7.20503 24.0717C7.47839 23.7983 7.92161 23.7983 8.19498 24.0717L9.53848 25.4152C9.81185 25.6886 9.81184 26.1318 9.53848 26.4051C9.26511 26.6785 8.8219 26.6785 8.54853 26.4051L7.20503 25.0616C6.93166 24.7883 6.93166 24.3451 7.20503 24.0717Z" fill="#0168FF"/>
<path d="M8.59048 26.4477C8.31712 26.1743 8.31712 25.7311 8.59048 25.4577L11.8432 22.205C12.1165 21.9317 12.5598 21.9317 12.8331 22.205C13.1065 22.4784 13.1065 22.9216 12.8331 23.195L9.58043 26.4477C9.30706 26.721 8.86385 26.721 8.59048 26.4477Z" fill="#0168FF"/>
</svg>
