<svg width="39" height="38" viewBox="0 0 39 38" fill="none" xmlns="http://www.w3.org/2000/svg">
<path d="M34.4697 32.0688V15.911C34.4697 15.6159 34.402 15.3249 34.2721 15.0609C34.1422 14.797 33.9536 14.5673 33.7212 14.3903L20.6227 4.41049C20.2988 4.16371 19.9048 4.0303 19.5 4.0303C19.0951 4.0303 18.7011 4.16371 18.3772 4.41049L5.27876 14.3903C5.04636 14.5673 4.85774 14.797 4.72782 15.0609C4.59791 15.3249 4.53027 15.6159 4.53027 15.911V32.0688C4.53027 32.5729 4.72742 33.0564 5.07834 33.4129C5.42926 33.7694 5.90521 33.9697 6.40149 33.9697H32.5985C33.0947 33.9697 33.5707 33.7694 33.9216 33.4129C34.2725 33.0564 34.4697 32.5729 34.4697 32.0688Z" fill="#CDE7FC"/>
<path fill-rule="evenodd" clip-rule="evenodd" d="M15.9347 1.20465C16.9562 0.426374 18.2072 0 19.5 0C20.7928 0 22.0438 0.426374 23.0653 1.20465L36.1637 11.1845C36.896 11.7424 37.4848 12.4615 37.8882 13.2811C38.2915 14.1006 38.5 15.0007 38.5 15.911V32.0688C38.5 33.6215 37.8934 35.1232 36.7938 36.2403C35.6921 37.3595 34.1843 38 32.5985 38H6.40152C4.81569 38 3.30786 37.3594 2.20616 36.2403C1.1066 35.1232 0.5 33.6215 0.5 32.0688V15.911C0.5 15.0008 0.708483 14.1006 1.11181 13.2811C1.51525 12.4614 2.10401 11.7424 2.83625 11.1845L15.9347 1.20465ZM19.5 8.62189L8.56061 16.9567V29.9394H30.4394V16.9567L19.5 8.62189Z" fill="#CDE7FC"/>
<path fill-rule="evenodd" clip-rule="evenodd" d="M10.8636 29.3636C10.8636 28.4097 11.637 27.6364 12.5909 27.6364L26.4091 27.6364C27.3631 27.6364 28.1364 28.4097 28.1364 29.3636C28.1364 30.3176 27.3631 31.0909 26.4091 31.0909L12.5909 31.0909C11.637 31.0909 10.8636 30.3176 10.8636 29.3636Z" fill="#0168FF"/>
</svg>
